<svg width="42" height="43" viewBox="0 0 42 43" fill="none" xmlns="http://www.w3.org/2000/svg">
<g clip-path="url(#clip0_6_34)">
<path d="M33.19 24.755C31.858 27.534 30.71 29.773 30.582 30.383C30.468 30.929 30.611 31.539 31.22 31.539C33.323 31.539 36.564 26.453 37.826 24.959L39.284 25.776C36.482 30.383 30.567 36.896 25.072 36.896C19.983 36.896 19.191 33.575 21.016 29.097L20.907 28.962C17.823 33.303 12.725 36.896 7.63901 36.896C0.991006 36.896 -0.914994 32.419 0.382006 26.25C2.48201 16.281 14.119 6.104 24.364 6.104C26.67 6.104 28.691 6.172 30.344 7.666C31.751 6.781 32.23 6.104 33.656 6.104H42L33.19 24.755ZM13.651 32.824C19.214 32.824 27.422 13.496 28.008 10.716C28.364 9.024 27.868 8.477 26.171 8.477C20.338 8.477 12.342 24.552 11.428 28.893C10.912 31.335 11.548 32.824 13.651 32.824Z" fill="#FF8B49"/>
</g>
<defs>
<clipPath id="clip0_6_34">
<rect width="42" height="42" fill="white" transform="translate(0 0.5)"/>
</clipPath>
</defs>
</svg>
