<svg width="295" height="295" viewBox="0 0 295 295" fill="none" xmlns="http://www.w3.org/2000/svg">
<path d="M84.843 147.698V39.9598H150.358C172.486 39.9598 187.103 52.7611 187.103 72.185C187.103 94.2542 168.072 111.033 129.119 123.834C102.557 132.214 90.6116 139.281 86.1785 147.679L84.843 147.692V147.698ZM84.843 255.861V210.835C84.843 190.967 101.667 171.543 125.131 164.032C145.943 156.966 163.193 149.899 177.81 142.407C197.286 153.895 209.232 173.744 209.232 194.5C209.232 229.814 175.584 255.861 129.991 255.861H84.843ZM45 293.821H133.534C200.829 293.821 251.282 251.884 251.282 196.257C251.282 165.79 235.794 138.43 208.341 120.763C222.513 106.63 229.153 90.2955 229.153 70.4276C229.153 29.3784 199.493 2 154.791 2H45V293.821Z" fill="#0B996E"/>
</svg>
