<svg width="40" height="40" viewBox="0 0 40 40" fill="none" xmlns="http://www.w3.org/2000/svg">
<path d="M34.6375 26.325L21.3375 34.125C20.2375 34.825 18.7375 34.825 17.6375 34.125L4.43752 26.325L3.03752 27.125C2.03752 27.625 1.73752 28.825 2.23752 29.825C2.43752 30.125 2.73752 30.425 3.03752 30.625L17.6375 39.225C18.7375 39.925 20.2375 39.925 21.3375 39.225L36.0375 30.625C37.0375 30.125 37.3375 28.925 36.8375 27.925C36.6375 27.625 36.3375 27.325 36.0375 27.125L34.6375 26.325Z" fill="#D8D8D8"/>
<path d="M34.6375 17.825L21.3375 25.625C20.2375 26.325 18.8375 26.325 17.6375 25.625L4.43752 17.825L3.03752 18.625C2.03752 19.125 1.73752 20.325 2.23752 21.325C2.43752 21.625 2.73752 21.925 3.03752 22.125L17.6375 30.725C18.7375 31.425 20.1375 31.425 21.3375 30.725L36.0375 22.125C37.0375 21.625 37.3375 20.425 36.8375 19.425C36.6375 19.125 36.3375 18.825 36.0375 18.625L34.6375 17.825Z" fill="#20A8D8"/>
<path d="M17.7375 22.125L3.03752 13.625C2.03752 13.125 1.73752 11.925 2.23752 10.925C2.43752 10.525 2.73752 10.325 3.03752 10.125L17.7375 1.525C18.8375 0.825 20.3375 0.825 21.4375 1.525L36.0375 10.125C37.0375 10.625 37.3375 11.825 36.8375 12.825C36.6375 13.125 36.3375 13.425 36.0375 13.625L21.4375 22.225C20.2375 22.825 18.8375 22.825 17.7375 22.125Z" fill="#FFC107"/>
</svg>
